<?xml version="1.0" standalone="no"?>
<!DOCTYPE svg PUBLIC "-//W3C//DTD SVG 20010904//EN"
 "http://www.w3.org/TR/2001/REC-SVG-20010904/DTD/svg10.dtd">
<svg version="1.0" xmlns="http://www.w3.org/2000/svg"
 width="1024.000000pt" height="1024.000000pt" viewBox="0 0 1024.000000 1024.000000"
 preserveAspectRatio="xMidYMid meet">
<metadata>
Created by potrace 1.16, written by Peter Selinger 2001-2019
</metadata>
<g transform="translate(0.000000,1024.000000) scale(0.100000,-0.100000)"
fill="#ffffff" stroke="none">
<path d="M4605 9110 c-66 -27 -402 -482 -612 -829 -76 -125 -80 -154 -27 -200
62 -55 706 -369 774 -378 31 -4 43 0 73 27 20 18 50 51 65 74 16 22 107 149
204 281 277 380 348 488 348 533 0 37 -20 77 -57 111 -46 43 -194 147 -294
206 -261 155 -400 206 -474 175z"/>
<path d="M5568 8590 c-9 -6 -63 -77 -119 -158 -56 -81 -152 -214 -213 -297
-123 -168 -289 -403 -305 -434 -17 -30 -13 -66 10 -95 25 -31 98 -74 327 -192
96 -49 191 -103 212 -122 79 -67 100 -203 59 -373 -12 -48 -19 -95 -16 -103
12 -30 37 -30 69 0 69 66 589 743 735 959 124 183 124 199 -10 330 -117 114
-310 269 -457 367 -181 121 -244 146 -292 118z"/>
<path d="M3715 8033 c-10 -3 -30 -12 -43 -21 -20 -13 -413 -518 -818 -1052
-444 -584 -441 -580 -430 -653 17 -103 180 -361 642 -1017 137 -195 300 -427
360 -515 61 -88 223 -322 359 -519 153 -222 253 -377 261 -404 13 -41 4 -122
-116 -1080 -72 -570 -133 -1052 -136 -1073 -9 -53 12 -107 50 -130 30 -18 68
-19 1379 -19 l1347 0 38 34 37 34 0 134 c0 73 -4 493 -9 933 -7 645 -7 810 4
854 10 42 33 80 105 175 160 211 247 351 361 577 205 408 333 870 351 1269 5
108 4 127 -11 139 -20 17 -37 6 -161 -99 -306 -260 -685 -550 -721 -550 -28 0
-81 50 -231 220 -229 260 -326 336 -598 470 -275 135 -622 255 -777 267 -76 6
-77 5 -107 -25 -54 -53 -54 -53 170 -423 95 -156 229 -378 299 -494 141 -233
259 -426 529 -868 101 -166 183 -310 184 -325 l2 -27 -88 3 -88 3 -33 -33
c-40 -40 -51 -83 -72 -283 -40 -385 -156 -1166 -214 -1440 -19 -91 1 257 60
1030 42 550 46 637 30 674 -16 39 -40 46 -136 37 -61 -6 -74 -4 -74 8 0 19 58
63 145 111 100 55 125 83 125 137 0 45 -60 156 -347 648 -50 85 -152 263 -228
395 -312 546 -497 847 -560 910 -81 82 -197 141 -562 290 l-92 37 99 49 c59
28 105 58 115 73 25 38 21 87 -15 173 -31 75 -46 180 -28 198 3 4 24 -13 45
-37 156 -177 253 -252 377 -291 62 -19 92 -22 236 -21 449 2 693 145 730 430
18 134 -1 225 -57 274 -46 41 -1587 808 -1633 814 -19 2 -44 2 -55 -1z"/>
<path d="M6479 7828 c-14 -13 -67 -84 -119 -158 -52 -74 -152 -214 -224 -310
-125 -169 -170 -228 -526 -685 -187 -241 -380 -525 -380 -560 0 -43 41 -72
195 -136 82 -34 208 -88 280 -121 141 -65 254 -108 282 -108 10 0 36 9 59 19
41 19 111 93 733 786 129 143 264 292 301 330 155 160 167 197 101 305 -70
116 -214 293 -351 431 -217 218 -292 262 -351 207z"/>
<path d="M7269 6933 c-38 -34 -164 -170 -752 -810 -277 -302 -323 -357 -337
-397 -10 -32 -9 -42 13 -88 44 -95 297 -416 355 -450 57 -34 77 -24 259 127
333 277 646 559 850 768 161 164 193 205 193 250 0 77 -184 348 -364 535 -111
115 -149 126 -217 65z"/>
<path d="M5154 6490 c-135 -31 -325 -51 -546 -58 -307 -10 -305 -19 37 -187
127 -63 254 -121 283 -131 63 -20 115 -14 149 18 47 44 213 329 213 366 0 16
-38 14 -136 -8z"/>
</g>
</svg>
