<?xml version="1.0" standalone="no"?>
<!DOCTYPE svg PUBLIC "-//W3C//DTD SVG 20010904//EN"
 "http://www.w3.org/TR/2001/REC-SVG-20010904/DTD/svg10.dtd">
<svg version="1.0" xmlns="http://www.w3.org/2000/svg"
 width="1024.000000pt" height="1024.000000pt" viewBox="0 0 1024.000000 1024.000000"
 preserveAspectRatio="xMidYMid meet">
<metadata>
Created by potrace 1.16, written by Peter Selinger 2001-2019
</metadata>
<g transform="translate(0.000000,1024.000000) scale(0.100000,-0.100000)"
fill="#FFFFFF" stroke="none">
<path d="M1689 7667 c-37 -31 -390 -492 -418 -545 -21 -39 -6 -69 47 -96 76
-38 504 -222 535 -230 24 -6 34 -1 61 26 34 35 339 508 350 544 10 33 -10 71
-51 97 -21 13 -126 69 -234 125 -213 111 -244 119 -290 79z"/>
<path d="M2342 7313 c-11 -10 -80 -103 -153 -208 -73 -104 -150 -214 -171
-244 -43 -62 -48 -98 -15 -128 12 -12 78 -48 147 -81 69 -33 141 -74 159 -91
l34 -32 -6 -82 c-3 -45 -16 -128 -27 -185 -23 -111 -23 -147 0 -147 12 0 479
576 557 688 31 45 34 88 6 125 -11 15 -118 111 -238 215 -230 197 -249 208
-293 170z"/>
<path d="M1046 6957 c-28 -28 -155 -198 -282 -377 -416 -586 -420 -592 -412
-685 4 -46 17 -73 103 -212 55 -87 250 -383 434 -658 481 -717 472 -704 478
-738 5 -33 -22 -209 -154 -1017 -41 -256 -78 -494 -80 -530 -4 -58 -2 -67 17
-85 22 -20 39 -20 889 -23 614 -2 877 0 904 8 68 20 67 14 68 587 0 279 4 591
7 693 l7 185 56 70 c196 244 311 522 428 1038 47 206 49 227 22 227 -11 0 -91
-52 -178 -117 -327 -241 -323 -238 -360 -228 -14 3 -102 80 -196 172 l-172
166 -171 83 c-209 101 -277 130 -351 149 -118 31 -212 12 -199 -41 5 -20 441
-753 631 -1060 115 -186 145 -260 113 -280 -7 -5 -39 -7 -70 -6 -32 2 -58 0
-58 -3 0 -26 -115 -826 -126 -880 -20 -95 -36 -148 -47 -160 -14 -15 -1 384
24 729 11 164 19 300 16 302 -3 3 -25 8 -49 11 -24 3 -51 10 -61 15 -25 13 -6
35 53 60 73 31 90 53 90 114 0 64 -4 72 -282 558 -316 554 -348 605 -413 672
-68 70 -130 103 -337 184 -161 63 -179 74 -158 94 8 7 48 26 88 41 41 15 76
34 79 43 4 8 -2 36 -12 61 -52 133 -64 171 -55 171 12 0 111 -80 185 -150 110
-104 135 -108 422 -66 184 26 219 38 253 87 46 64 101 274 86 332 -4 16 -21
36 -44 50 -44 28 -380 179 -768 347 -338 146 -343 146 -418 67z"/>
<path d="M2917 6748 c-54 -55 -546 -683 -654 -835 -97 -135 -105 -166 -50
-206 42 -32 387 -197 410 -197 28 0 73 27 97 57 12 16 164 182 338 371 174
188 323 354 330 368 28 53 11 78 -192 281 -105 105 -201 194 -214 198 -18 5
-31 -2 -65 -37z"/>
<path d="M3437 6240 c-35 -27 -657 -695 -679 -729 -10 -14 -18 -43 -18 -64 0
-36 9 -48 113 -154 130 -132 136 -134 223 -82 116 70 459 337 651 506 84 75
96 104 63 160 -37 62 -270 362 -290 373 -26 14 -34 13 -63 -10z"/>
<path d="M1872 5980 c-123 -21 -229 -43 -235 -49 -21 -21 17 -41 199 -107 178
-63 208 -71 231 -56 16 10 113 212 113 235 0 25 -48 22 -308 -23z"/>
<path d="M4242 5480 c-193 -52 -323 -185 -368 -377 -30 -127 2 -232 93 -313
26 -23 101 -74 166 -112 97 -57 121 -76 133 -104 29 -69 -16 -146 -101 -175
-68 -23 -233 -16 -354 15 -57 15 -108 23 -112 19 -4 -4 -27 -72 -52 -150 l-44
-142 86 -20 c191 -44 420 -51 556 -16 107 28 182 70 254 142 105 105 158 240
149 379 -8 127 -57 184 -247 293 -124 71 -157 98 -167 135 -15 60 31 125 102
145 78 22 161 14 385 -35 25 -6 26 -4 63 136 20 78 36 143 34 145 -2 1 -46 13
-98 25 -137 33 -375 38 -478 10z"/>
<path d="M8195 5490 c-122 -26 -239 -90 -299 -164 -80 -99 -120 -204 -120
-316 -1 -133 57 -206 258 -324 65 -38 124 -79 132 -90 20 -29 17 -95 -5 -132
-23 -38 -73 -62 -154 -75 -75 -12 -148 -5 -286 27 -58 13 -108 21 -112 17 -4
-5 -27 -72 -52 -150 l-44 -142 66 -15 c195 -44 438 -54 565 -23 192 48 319
158 382 333 73 200 24 345 -149 446 -220 127 -237 142 -237 208 0 40 49 94 98
108 59 18 162 14 275 -9 56 -12 110 -22 121 -23 16 -1 25 20 57 134 21 74 38
138 39 141 0 7 -101 33 -194 49 -69 12 -283 12 -341 0z"/>
<path d="M5127 5473 c-3 -5 -28 -84 -57 -178 -111 -365 -284 -870 -374 -1098
l-34 -87 175 2 175 3 50 155 c164 514 240 745 245 750 3 3 3 -11 -1 -30 -3
-19 -19 -197 -36 -395 -17 -198 -33 -388 -36 -422 l-7 -63 165 0 165 0 83 148
c181 325 434 771 436 769 1 -1 -16 -54 -37 -117 -39 -111 -249 -782 -249 -794
0 -3 76 -6 169 -6 l170 0 15 53 c8 28 45 158 81 287 110 387 219 756 299 1008
l7 22 -258 0 -258 0 -18 -38 c-51 -103 -441 -831 -445 -828 -2 2 6 86 17 187
11 101 30 276 41 389 11 113 22 224 25 248 l6 42 -255 0 c-140 0 -257 -3 -259
-7z"/>
<path d="M7043 5468 c-6 -7 -45 -74 -88 -148 -43 -74 -217 -370 -386 -656
-170 -287 -312 -529 -315 -538 -6 -14 12 -16 169 -16 l176 0 73 130 73 130
178 0 c135 0 177 -3 177 -12 0 -7 -7 -60 -15 -118 -8 -58 -15 -111 -15 -117 0
-10 43 -13 185 -13 l184 0 5 33 c2 17 10 295 17 617 6 322 14 615 16 653 l5
67 -215 0 c-160 0 -217 -3 -224 -12z m92 -578 c-14 -123 -25 -230 -25 -237 0
-8 -32 -13 -110 -15 -61 -2 -110 -2 -110 0 0 2 52 95 115 207 63 112 122 219
132 239 9 20 18 35 19 33 2 -2 -8 -104 -21 -227z"/>
<path d="M9047 5473 c-3 -5 -12 -35 -22 -68 -9 -33 -59 -197 -110 -365 -51
-168 -126 -411 -165 -540 -40 -129 -85 -270 -100 -312 l-29 -78 177 0 178 0
80 261 80 261 149 -1 c82 -1 150 -3 151 -4 1 -1 -35 -118 -81 -260 l-82 -257
175 2 175 3 33 105 c238 765 369 1183 379 1218 l13 42 -176 -2 -175 -3 -33
-100 c-18 -55 -58 -180 -89 -277 l-56 -178 -145 0 c-134 0 -145 1 -140 18 126
394 160 498 171 525 7 16 -5 17 -173 17 -100 0 -183 -3 -185 -7z"/>
<path d="M3531 3798 c-66 -247 -315 -1040 -355 -1130 -8 -17 15 -18 393 -18
l400 0 26 88 c15 48 30 100 36 116 5 16 9 33 9 37 0 5 -111 9 -246 9 -193 0
-245 3 -241 13 2 6 26 77 52 157 25 80 95 294 155 475 59 182 111 340 114 353
l7 22 -159 0 -159 0 -32 -122z"/>
<path d="M4655 3644 c-11 -2 -57 -11 -102 -20 -46 -9 -87 -22 -91 -28 -11 -13
-55 -187 -49 -192 2 -3 44 6 93 18 119 29 293 32 343 5 33 -19 33 -19 29 -83
-2 -35 -8 -68 -13 -73 -6 -6 -77 -14 -160 -20 -176 -12 -238 -23 -322 -61
-149 -68 -241 -217 -231 -376 5 -77 38 -126 114 -164 96 -49 272 -26 397 51
l48 29 -6 -43 -7 -42 117 3 116 3 18 43 c11 23 49 141 86 262 36 120 78 255
93 299 18 58 26 102 26 162 1 76 -1 83 -30 120 -40 50 -96 80 -181 98 -62 13
-238 19 -288 9z m140 -620 c-14 -45 -35 -88 -50 -104 -63 -65 -196 -111 -262
-89 -57 18 -68 71 -32 146 36 74 81 94 259 112 47 4 90 9 97 10 8 1 4 -25 -12
-75z"/>
<path d="M5905 3637 c-61 -16 -136 -49 -177 -78 l-30 -22 6 49 7 49 -123 -5
-122 -5 -29 -95 c-47 -157 -269 -864 -274 -872 -2 -5 58 -8 134 -8 l138 0 105
336 c113 364 116 371 200 414 54 27 157 38 199 20 37 -15 55 -58 47 -110 -3
-23 -49 -177 -101 -344 -52 -166 -95 -306 -95 -310 0 -3 59 -5 132 -4 l132 3
24 75 c137 439 194 632 199 680 10 97 -28 169 -111 212 -51 27 -186 34 -261
15z"/>
<path d="M6803 3631 c-196 -56 -317 -183 -394 -411 -23 -69 -33 -120 -37 -187
-6 -109 7 -165 50 -217 48 -58 99 -79 203 -84 100 -4 182 12 268 54 59 28 57
28 57 11 0 -34 -65 -139 -110 -180 -96 -87 -253 -106 -434 -52 -49 14 -95 24
-102 21 -11 -4 -84 -179 -84 -202 0 -10 58 -31 160 -55 82 -20 309 -17 390 5
195 53 325 170 404 365 13 33 72 217 130 408 58 192 115 375 126 407 11 33 20
72 20 87 l0 28 -101 3 -100 3 -11 -42 -10 -43 -34 30 c-75 65 -257 89 -391 51z
m257 -223 c33 -17 46 -30 48 -48 1 -14 -21 -97 -50 -185 -51 -153 -55 -161
-93 -188 -47 -32 -152 -54 -210 -43 -21 4 -51 20 -67 36 -24 25 -28 36 -28 88
0 151 91 308 202 349 57 20 148 16 198 -9z"/>
</g>
</svg>
